# xmcd CD database file
#
# Track frame offsets:
#	150
#	34490
#	59515
#	94697
#	119635
#	152760
#	199040
#	233645
#	261945
#
# Disc length: 3548 seconds
#
# Revision: 0
# Processed by: cddbd v1.5.1PL2 Copyright (c) Steve Scherf et al.
# Submitted via: CDex 1.51
#
DISCID=7d0dda09
DTITLE=Mike LeDonne Quintet - 'Bout Time
DYEAR=1988
DGENRE=Jazz
TTITLE0=Boo's Blues
TTITLE1=Minor Contention
TTITLE2=All Too Soon
TTITLE3=Olla Padrida
TTITLE4=Why Was I Born
TTITLE5=Kelly's Gait
TTITLE6=B.P. Bossa
TTITLE7=Jay Street
TTITLE8='Bout Time
EXTD=YEAR: 1988
EXTT0=
EXTT1=
EXTT2=
EXTT3=
EXTT4=
EXTT5=
EXTT6=
EXTT7=
EXTT8=
PLAYORDER=
